<svg width="24" height="24" viewBox="0 0 24 24" fill="none" xmlns="http://www.w3.org/2000/svg">
                            <path d="M0.578646 11.3988L3.98615 10.4251C5.52063 9.99244 6.91842 9.17327 8.04577 8.04593C9.17311 6.91858 9.99228 5.52079 10.4249 3.9863L11.3986 0.578803C11.4476 0.459586 11.5309 0.357618 11.638 0.285857C11.745 0.214096 11.871 0.175781 11.9999 0.175781C12.1288 0.175781 12.2548 0.214096 12.3618 0.285857C12.4689 0.357618 12.5522 0.459586 12.6011 0.578803L13.5749 3.9863C14.0075 5.52079 14.8267 6.91858 15.954 8.04593C17.0814 9.17327 18.4792 9.99244 20.0136 10.4251L23.4211 11.3988C23.552 11.4359 23.6671 11.5147 23.7491 11.6232C23.8311 11.7318 23.8755 11.864 23.8755 12.0001C23.8755 12.1361 23.8311 12.2684 23.7491 12.3769C23.6671 12.4854 23.552 12.5642 23.4211 12.6013L20.0136 13.5751C18.4792 14.0077 17.0814 14.8268 15.954 15.9542C14.8267 17.0815 14.0075 18.4793 13.5749 20.0138L12.6011 23.4213C12.564 23.5521 12.4852 23.6673 12.3767 23.7493C12.2682 23.8313 12.1359 23.8756 11.9999 23.8756C11.8639 23.8756 11.7316 23.8313 11.6231 23.7493C11.5146 23.6673 11.4358 23.5521 11.3986 23.4213L10.4249 20.0138C9.99228 18.4793 9.17311 17.0815 8.04577 15.9542C6.91842 14.8268 5.52063 14.0077 3.98615 13.5751L0.578646 12.6013C0.447809 12.5642 0.332657 12.4854 0.25066 12.3769C0.168665 12.2684 0.124302 12.1361 0.124302 12.0001C0.124302 11.864 0.168665 11.7318 0.25066 11.6232C0.332657 11.5147 0.447809 11.4359 0.578646 11.3988Z" fill="currentColor"></path>
                          </svg>